# xmcd
#
# Track frame offsets:
#	150
#	13759
#	26700
#	38795
#	56942
#	70255
#	82537
#	98645
#	113117
#	128162
#
# Disc length: 1907 seconds
#
# Revision: 5
# Processed by: cddbd v1.5.2PL0 Copyright (c) Steve Scherf et al.
# Submitted via: EasyCDDAExtractor 10.0.6.1
#
DISCID=7a07710a
DTITLE=Anderson, John - Solid Ground
DYEAR=1993
DGENRE=Country
TTITLE0=Money In The Bank
TTITLE1=I've Got It Made
TTITLE2=I Fell In The Water
TTITLE3=Bad Love Gone Good
TTITLE4=All Things To All Things
TTITLE5=Where I come From
TTITLE6=I Wish I Could Have Been There
TTITLE7=Nashville Tears
TTITLE8=Can't Get Away From You
TTITLE9=Solid Ground
EXTD=
EXTT0=
EXTT1=
EXTT2=
EXTT3=
EXTT4=
EXTT5=
EXTT6=
EXTT7=
EXTT8=
EXTT9=
PLAYORDER=
